<svg width="279" height="61" viewBox="0 0 279 61" fill="none" xmlns="http://www.w3.org/2000/svg">
<rect y="0.5" width="60" height="60" rx="8" fill="#1890FF"/>
<path d="M30.8721 33.4248H23.8398V29.7324H30.8721C32.0967 29.7324 33.0863 29.5345 33.8408 29.1387C34.5954 28.7428 35.1458 28.1986 35.4922 27.5059C35.8509 26.8008 36.0303 25.9967 36.0303 25.0938C36.0303 24.2402 35.8509 23.4424 35.4922 22.7002C35.1458 21.9456 34.5954 21.3395 33.8408 20.8818C33.0863 20.4242 32.0967 20.1953 30.8721 20.1953H25.2686V43.5H20.6113V16.4844H30.8721C32.9626 16.4844 34.7376 16.8555 36.1973 17.5977C37.6693 18.3275 38.7887 19.3418 39.5557 20.6406C40.3226 21.9271 40.7061 23.3991 40.7061 25.0566C40.7061 26.8008 40.3226 28.2975 39.5557 29.5469C38.7887 30.7962 37.6693 31.7549 36.1973 32.4229C34.7376 33.0908 32.9626 33.4248 30.8721 33.4248Z" fill="white"/>
<path d="M72.6016 35.957V29.9102C72.6016 29.457 72.5195 29.0664 72.3555 28.7383C72.1914 28.4102 71.9414 28.1562 71.6055 27.9766C71.2773 27.7969 70.8633 27.707 70.3633 27.707C69.9023 27.707 69.5039 27.7852 69.168 27.9414C68.832 28.0977 68.5703 28.3086 68.3828 28.5742C68.1953 28.8398 68.1016 29.1406 68.1016 29.4766H65.2891C65.2891 28.9766 65.4102 28.4922 65.6523 28.0234C65.8945 27.5547 66.2461 27.1367 66.707 26.7695C67.168 26.4023 67.7188 26.1133 68.3594 25.9023C69 25.6914 69.7188 25.5859 70.5156 25.5859C71.4688 25.5859 72.3125 25.7461 73.0469 26.0664C73.7891 26.3867 74.3711 26.8711 74.793 27.5195C75.2227 28.1602 75.4375 28.9648 75.4375 29.9336V35.5703C75.4375 36.1484 75.4766 36.668 75.5547 37.1289C75.6406 37.582 75.7617 37.9766 75.918 38.3125V38.5H73.0234C72.8906 38.1953 72.7852 37.8086 72.707 37.3398C72.6367 36.8633 72.6016 36.4023 72.6016 35.957ZM73.0117 30.7891L73.0352 32.5352H71.0078C70.4844 32.5352 70.0234 32.5859 69.625 32.6875C69.2266 32.7812 68.8945 32.9219 68.6289 33.1094C68.3633 33.2969 68.1641 33.5234 68.0312 33.7891C67.8984 34.0547 67.832 34.3555 67.832 34.6914C67.832 35.0273 67.9102 35.3359 68.0664 35.6172C68.2227 35.8906 68.4492 36.1055 68.7461 36.2617C69.0508 36.418 69.418 36.4961 69.8477 36.4961C70.4258 36.4961 70.9297 36.3789 71.3594 36.1445C71.7969 35.9023 72.1406 35.6094 72.3906 35.2656C72.6406 34.9141 72.7734 34.582 72.7891 34.2695L73.7031 35.5234C73.6094 35.8438 73.4492 36.1875 73.2227 36.5547C72.9961 36.9219 72.6992 37.2734 72.332 37.6094C71.9727 37.9375 71.5391 38.207 71.0312 38.418C70.5312 38.6289 69.9531 38.7344 69.2969 38.7344C68.4688 38.7344 67.7305 38.5703 67.082 38.2422C66.4336 37.9062 65.9258 37.457 65.5586 36.8945C65.1914 36.3242 65.0078 35.6797 65.0078 34.9609C65.0078 34.2891 65.1328 33.6953 65.3828 33.1797C65.6406 32.6562 66.0156 32.2188 66.5078 31.8672C67.0078 31.5156 67.6172 31.25 68.3359 31.0703C69.0547 30.8828 69.875 30.7891 70.7969 30.7891H73.0117ZM81.2266 28.2344V38.5H78.4023V25.8203H81.0977L81.2266 28.2344ZM85.1055 25.7383L85.082 28.3633C84.9102 28.332 84.7227 28.3086 84.5195 28.293C84.3242 28.2773 84.1289 28.2695 83.9336 28.2695C83.4492 28.2695 83.0234 28.3398 82.6562 28.4805C82.2891 28.6133 81.9805 28.8086 81.7305 29.0664C81.4883 29.3164 81.3008 29.6211 81.168 29.9805C81.0352 30.3398 80.957 30.7422 80.9336 31.1875L80.2891 31.2344C80.2891 30.4375 80.3672 29.6992 80.5234 29.0195C80.6797 28.3398 80.9141 27.7422 81.2266 27.2266C81.5469 26.7109 81.9453 26.3086 82.4219 26.0195C82.9062 25.7305 83.4648 25.5859 84.0977 25.5859C84.2695 25.5859 84.4531 25.6016 84.6484 25.6328C84.8516 25.6641 85.0039 25.6992 85.1055 25.7383ZM89.7227 20.5V38.5H86.8867V20.5H89.7227ZM97.5977 25.8203L92.0781 31.9375L89.0547 35.0312L88.3164 32.6406L90.6016 29.8164L94.1875 25.8203H97.5977ZM94.7969 38.5L90.6836 32.5469L92.4648 30.5664L98.0664 38.5H94.7969ZM102.414 25.8203V38.5H99.5781V25.8203H102.414ZM99.3906 22.4922C99.3906 22.0625 99.5312 21.707 99.8125 21.4258C100.102 21.1367 100.5 20.9922 101.008 20.9922C101.508 20.9922 101.902 21.1367 102.191 21.4258C102.48 21.707 102.625 22.0625 102.625 22.4922C102.625 22.9141 102.48 23.2656 102.191 23.5469C101.902 23.8281 101.508 23.9688 101.008 23.9688C100.5 23.9688 100.102 23.8281 99.8125 23.5469C99.5312 23.2656 99.3906 22.9141 99.3906 22.4922ZM108.309 28.5273V38.5H105.484V25.8203H108.145L108.309 28.5273ZM107.805 31.6914L106.891 31.6797C106.898 30.7812 107.023 29.957 107.266 29.207C107.516 28.457 107.859 27.8125 108.297 27.2734C108.742 26.7344 109.273 26.3203 109.891 26.0312C110.508 25.7344 111.195 25.5859 111.953 25.5859C112.562 25.5859 113.113 25.6719 113.605 25.8438C114.105 26.0078 114.531 26.2773 114.883 26.6523C115.242 27.0273 115.516 27.5156 115.703 28.1172C115.891 28.7109 115.984 29.4414 115.984 30.3086V38.5H113.148V30.2969C113.148 29.6875 113.059 29.207 112.879 28.8555C112.707 28.4961 112.453 28.2422 112.117 28.0938C111.789 27.9375 111.379 27.8594 110.887 27.8594C110.402 27.8594 109.969 27.9609 109.586 28.1641C109.203 28.3672 108.879 28.6445 108.613 28.9961C108.355 29.3477 108.156 29.7539 108.016 30.2148C107.875 30.6758 107.805 31.168 107.805 31.6914ZM126.988 25.8203H129.555V38.1484C129.555 39.2891 129.312 40.2578 128.828 41.0547C128.344 41.8516 127.668 42.457 126.801 42.8711C125.934 43.293 124.93 43.5039 123.789 43.5039C123.305 43.5039 122.766 43.4336 122.172 43.293C121.586 43.1523 121.016 42.9258 120.461 42.6133C119.914 42.3086 119.457 41.9062 119.09 41.4062L120.414 39.7422C120.867 40.2812 121.367 40.6758 121.914 40.9258C122.461 41.1758 123.035 41.3008 123.637 41.3008C124.285 41.3008 124.836 41.1797 125.289 40.9375C125.75 40.7031 126.105 40.3555 126.355 39.8945C126.605 39.4336 126.73 38.8711 126.73 38.207V28.6914L126.988 25.8203ZM118.375 32.3008V32.0547C118.375 31.0938 118.492 30.2188 118.727 29.4297C118.961 28.6328 119.297 27.9492 119.734 27.3789C120.172 26.8008 120.703 26.3594 121.328 26.0547C121.953 25.7422 122.66 25.5859 123.449 25.5859C124.27 25.5859 124.969 25.7344 125.547 26.0312C126.133 26.3281 126.621 26.7539 127.012 27.3086C127.402 27.8555 127.707 28.5117 127.926 29.2773C128.152 30.0352 128.32 30.8789 128.43 31.8086V32.5938C128.328 33.5 128.156 34.3281 127.914 35.0781C127.672 35.8281 127.352 36.4766 126.953 37.0234C126.555 37.5703 126.062 37.9922 125.477 38.2891C124.898 38.5859 124.215 38.7344 123.426 38.7344C122.652 38.7344 121.953 38.5742 121.328 38.2539C120.711 37.9336 120.18 37.4844 119.734 36.9062C119.297 36.3281 118.961 35.6484 118.727 34.8672C118.492 34.0781 118.375 33.2227 118.375 32.3008ZM121.199 32.0547V32.3008C121.199 32.8789 121.254 33.418 121.363 33.918C121.48 34.418 121.656 34.8594 121.891 35.2422C122.133 35.6172 122.438 35.9141 122.805 36.1328C123.18 36.3438 123.621 36.4492 124.129 36.4492C124.793 36.4492 125.336 36.3086 125.758 36.0273C126.188 35.7461 126.516 35.3672 126.742 34.8906C126.977 34.4062 127.141 33.8672 127.234 33.2734V31.1523C127.188 30.6914 127.09 30.2617 126.941 29.8633C126.801 29.4648 126.609 29.1172 126.367 28.8203C126.125 28.5156 125.82 28.2812 125.453 28.1172C125.086 27.9453 124.652 27.8594 124.152 27.8594C123.645 27.8594 123.203 27.9688 122.828 28.1875C122.453 28.4062 122.145 28.707 121.902 29.0898C121.668 29.4727 121.492 29.918 121.375 30.4258C121.258 30.9336 121.199 31.4766 121.199 32.0547ZM139.938 21.4375H142.562L147.496 34.5977L152.418 21.4375H155.043L148.527 38.5H146.441L139.938 21.4375ZM138.742 21.4375H141.238L141.672 32.8281V38.5H138.742V21.4375ZM153.742 21.4375H156.25V38.5H153.309V32.8281L153.742 21.4375ZM166.609 35.957V29.9102C166.609 29.457 166.527 29.0664 166.363 28.7383C166.199 28.4102 165.949 28.1562 165.613 27.9766C165.285 27.7969 164.871 27.707 164.371 27.707C163.91 27.707 163.512 27.7852 163.176 27.9414C162.84 28.0977 162.578 28.3086 162.391 28.5742C162.203 28.8398 162.109 29.1406 162.109 29.4766H159.297C159.297 28.9766 159.418 28.4922 159.66 28.0234C159.902 27.5547 160.254 27.1367 160.715 26.7695C161.176 26.4023 161.727 26.1133 162.367 25.9023C163.008 25.6914 163.727 25.5859 164.523 25.5859C165.477 25.5859 166.32 25.7461 167.055 26.0664C167.797 26.3867 168.379 26.8711 168.801 27.5195C169.23 28.1602 169.445 28.9648 169.445 29.9336V35.5703C169.445 36.1484 169.484 36.668 169.562 37.1289C169.648 37.582 169.77 37.9766 169.926 38.3125V38.5H167.031C166.898 38.1953 166.793 37.8086 166.715 37.3398C166.645 36.8633 166.609 36.4023 166.609 35.957ZM167.02 30.7891L167.043 32.5352H165.016C164.492 32.5352 164.031 32.5859 163.633 32.6875C163.234 32.7812 162.902 32.9219 162.637 33.1094C162.371 33.2969 162.172 33.5234 162.039 33.7891C161.906 34.0547 161.84 34.3555 161.84 34.6914C161.84 35.0273 161.918 35.3359 162.074 35.6172C162.23 35.8906 162.457 36.1055 162.754 36.2617C163.059 36.418 163.426 36.4961 163.855 36.4961C164.434 36.4961 164.938 36.3789 165.367 36.1445C165.805 35.9023 166.148 35.6094 166.398 35.2656C166.648 34.9141 166.781 34.582 166.797 34.2695L167.711 35.5234C167.617 35.8438 167.457 36.1875 167.23 36.5547C167.004 36.9219 166.707 37.2734 166.34 37.6094C165.98 37.9375 165.547 38.207 165.039 38.418C164.539 38.6289 163.961 38.7344 163.305 38.7344C162.477 38.7344 161.738 38.5703 161.09 38.2422C160.441 37.9062 159.934 37.457 159.566 36.8945C159.199 36.3242 159.016 35.6797 159.016 34.9609C159.016 34.2891 159.141 33.6953 159.391 33.1797C159.648 32.6562 160.023 32.2188 160.516 31.8672C161.016 31.5156 161.625 31.25 162.344 31.0703C163.062 30.8828 163.883 30.7891 164.805 30.7891H167.02ZM175.199 28.5273V38.5H172.375V25.8203H175.035L175.199 28.5273ZM174.695 31.6914L173.781 31.6797C173.789 30.7812 173.914 29.957 174.156 29.207C174.406 28.457 174.75 27.8125 175.188 27.2734C175.633 26.7344 176.164 26.3203 176.781 26.0312C177.398 25.7344 178.086 25.5859 178.844 25.5859C179.453 25.5859 180.004 25.6719 180.496 25.8438C180.996 26.0078 181.422 26.2773 181.773 26.6523C182.133 27.0273 182.406 27.5156 182.594 28.1172C182.781 28.7109 182.875 29.4414 182.875 30.3086V38.5H180.039V30.2969C180.039 29.6875 179.949 29.207 179.77 28.8555C179.598 28.4961 179.344 28.2422 179.008 28.0938C178.68 27.9375 178.27 27.8594 177.777 27.8594C177.293 27.8594 176.859 27.9609 176.477 28.1641C176.094 28.3672 175.77 28.6445 175.504 28.9961C175.246 29.3477 175.047 29.7539 174.906 30.2148C174.766 30.6758 174.695 31.168 174.695 31.6914ZM192.906 35.957V29.9102C192.906 29.457 192.824 29.0664 192.66 28.7383C192.496 28.4102 192.246 28.1562 191.91 27.9766C191.582 27.7969 191.168 27.707 190.668 27.707C190.207 27.707 189.809 27.7852 189.473 27.9414C189.137 28.0977 188.875 28.3086 188.688 28.5742C188.5 28.8398 188.406 29.1406 188.406 29.4766H185.594C185.594 28.9766 185.715 28.4922 185.957 28.0234C186.199 27.5547 186.551 27.1367 187.012 26.7695C187.473 26.4023 188.023 26.1133 188.664 25.9023C189.305 25.6914 190.023 25.5859 190.82 25.5859C191.773 25.5859 192.617 25.7461 193.352 26.0664C194.094 26.3867 194.676 26.8711 195.098 27.5195C195.527 28.1602 195.742 28.9648 195.742 29.9336V35.5703C195.742 36.1484 195.781 36.668 195.859 37.1289C195.945 37.582 196.066 37.9766 196.223 38.3125V38.5H193.328C193.195 38.1953 193.09 37.8086 193.012 37.3398C192.941 36.8633 192.906 36.4023 192.906 35.957ZM193.316 30.7891L193.34 32.5352H191.312C190.789 32.5352 190.328 32.5859 189.93 32.6875C189.531 32.7812 189.199 32.9219 188.934 33.1094C188.668 33.2969 188.469 33.5234 188.336 33.7891C188.203 34.0547 188.137 34.3555 188.137 34.6914C188.137 35.0273 188.215 35.3359 188.371 35.6172C188.527 35.8906 188.754 36.1055 189.051 36.2617C189.355 36.418 189.723 36.4961 190.152 36.4961C190.73 36.4961 191.234 36.3789 191.664 36.1445C192.102 35.9023 192.445 35.6094 192.695 35.2656C192.945 34.9141 193.078 34.582 193.094 34.2695L194.008 35.5234C193.914 35.8438 193.754 36.1875 193.527 36.5547C193.301 36.9219 193.004 37.2734 192.637 37.6094C192.277 37.9375 191.844 38.207 191.336 38.418C190.836 38.6289 190.258 38.7344 189.602 38.7344C188.773 38.7344 188.035 38.5703 187.387 38.2422C186.738 37.9062 186.23 37.457 185.863 36.8945C185.496 36.3242 185.312 35.6797 185.312 34.9609C185.312 34.2891 185.438 33.6953 185.688 33.1797C185.945 32.6562 186.32 32.2188 186.812 31.8672C187.312 31.5156 187.922 31.25 188.641 31.0703C189.359 30.8828 190.18 30.7891 191.102 30.7891H193.316ZM206.816 25.8203H209.383V38.1484C209.383 39.2891 209.141 40.2578 208.656 41.0547C208.172 41.8516 207.496 42.457 206.629 42.8711C205.762 43.293 204.758 43.5039 203.617 43.5039C203.133 43.5039 202.594 43.4336 202 43.293C201.414 43.1523 200.844 42.9258 200.289 42.6133C199.742 42.3086 199.285 41.9062 198.918 41.4062L200.242 39.7422C200.695 40.2812 201.195 40.6758 201.742 40.9258C202.289 41.1758 202.863 41.3008 203.465 41.3008C204.113 41.3008 204.664 41.1797 205.117 40.9375C205.578 40.7031 205.934 40.3555 206.184 39.8945C206.434 39.4336 206.559 38.8711 206.559 38.207V28.6914L206.816 25.8203ZM198.203 32.3008V32.0547C198.203 31.0938 198.32 30.2188 198.555 29.4297C198.789 28.6328 199.125 27.9492 199.562 27.3789C200 26.8008 200.531 26.3594 201.156 26.0547C201.781 25.7422 202.488 25.5859 203.277 25.5859C204.098 25.5859 204.797 25.7344 205.375 26.0312C205.961 26.3281 206.449 26.7539 206.84 27.3086C207.23 27.8555 207.535 28.5117 207.754 29.2773C207.98 30.0352 208.148 30.8789 208.258 31.8086V32.5938C208.156 33.5 207.984 34.3281 207.742 35.0781C207.5 35.8281 207.18 36.4766 206.781 37.0234C206.383 37.5703 205.891 37.9922 205.305 38.2891C204.727 38.5859 204.043 38.7344 203.254 38.7344C202.48 38.7344 201.781 38.5742 201.156 38.2539C200.539 37.9336 200.008 37.4844 199.562 36.9062C199.125 36.3281 198.789 35.6484 198.555 34.8672C198.32 34.0781 198.203 33.2227 198.203 32.3008ZM201.027 32.0547V32.3008C201.027 32.8789 201.082 33.418 201.191 33.918C201.309 34.418 201.484 34.8594 201.719 35.2422C201.961 35.6172 202.266 35.9141 202.633 36.1328C203.008 36.3438 203.449 36.4492 203.957 36.4492C204.621 36.4492 205.164 36.3086 205.586 36.0273C206.016 35.7461 206.344 35.3672 206.57 34.8906C206.805 34.4062 206.969 33.8672 207.062 33.2734V31.1523C207.016 30.6914 206.918 30.2617 206.77 29.8633C206.629 29.4648 206.438 29.1172 206.195 28.8203C205.953 28.5156 205.648 28.2812 205.281 28.1172C204.914 27.9453 204.48 27.8594 203.98 27.8594C203.473 27.8594 203.031 27.9688 202.656 28.1875C202.281 28.4062 201.973 28.707 201.73 29.0898C201.496 29.4727 201.32 29.918 201.203 30.4258C201.086 30.9336 201.027 31.4766 201.027 32.0547ZM217.902 38.7344C216.965 38.7344 216.117 38.582 215.359 38.2773C214.609 37.9648 213.969 37.5312 213.438 36.9766C212.914 36.4219 212.512 35.7695 212.23 35.0195C211.949 34.2695 211.809 33.4609 211.809 32.5938V32.125C211.809 31.1328 211.953 30.2344 212.242 29.4297C212.531 28.625 212.934 27.9375 213.449 27.3672C213.965 26.7891 214.574 26.3477 215.277 26.043C215.98 25.7383 216.742 25.5859 217.562 25.5859C218.469 25.5859 219.262 25.7383 219.941 26.043C220.621 26.3477 221.184 26.7773 221.629 27.332C222.082 27.8789 222.418 28.5312 222.637 29.2891C222.863 30.0469 222.977 30.8828 222.977 31.7969V33.0039H213.18V30.9766H220.188V30.7539C220.172 30.2461 220.07 29.7695 219.883 29.3242C219.703 28.8789 219.426 28.5195 219.051 28.2461C218.676 27.9727 218.176 27.8359 217.551 27.8359C217.082 27.8359 216.664 27.9375 216.297 28.1406C215.938 28.3359 215.637 28.6211 215.395 28.9961C215.152 29.3711 214.965 29.8242 214.832 30.3555C214.707 30.8789 214.645 31.4688 214.645 32.125V32.5938C214.645 33.1484 214.719 33.6641 214.867 34.1406C215.023 34.6094 215.25 35.0195 215.547 35.3711C215.844 35.7227 216.203 36 216.625 36.2031C217.047 36.3984 217.527 36.4961 218.066 36.4961C218.746 36.4961 219.352 36.3594 219.883 36.0859C220.414 35.8125 220.875 35.4258 221.266 34.9258L222.754 36.3672C222.48 36.7656 222.125 37.1484 221.688 37.5156C221.25 37.875 220.715 38.168 220.082 38.3945C219.457 38.6211 218.73 38.7344 217.902 38.7344ZM228.004 28.3984V38.5H225.18V25.8203H227.84L228.004 28.3984ZM227.547 31.6914L226.586 31.6797C226.586 30.8047 226.695 29.9961 226.914 29.2539C227.133 28.5117 227.453 27.8672 227.875 27.3203C228.297 26.7656 228.82 26.3398 229.445 26.043C230.078 25.7383 230.809 25.5859 231.637 25.5859C232.215 25.5859 232.742 25.6719 233.219 25.8438C233.703 26.0078 234.121 26.2695 234.473 26.6289C234.832 26.9883 235.105 27.4492 235.293 28.0117C235.488 28.5742 235.586 29.2539 235.586 30.0508V38.5H232.762V30.2969C232.762 29.6797 232.668 29.1953 232.48 28.8438C232.301 28.4922 232.039 28.2422 231.695 28.0938C231.359 27.9375 230.957 27.8594 230.488 27.8594C229.957 27.8594 229.504 27.9609 229.129 28.1641C228.762 28.3672 228.461 28.6445 228.227 28.9961C227.992 29.3477 227.82 29.7539 227.711 30.2148C227.602 30.6758 227.547 31.168 227.547 31.6914ZM235.41 30.9414L234.086 31.2344C234.086 30.4688 234.191 29.7461 234.402 29.0664C234.621 28.3789 234.938 27.7773 235.352 27.2617C235.773 26.7383 236.293 26.3281 236.91 26.0312C237.527 25.7344 238.234 25.5859 239.031 25.5859C239.68 25.5859 240.258 25.6758 240.766 25.8555C241.281 26.0273 241.719 26.3008 242.078 26.6758C242.438 27.0508 242.711 27.5391 242.898 28.1406C243.086 28.7344 243.18 29.4531 243.18 30.2969V38.5H240.344V30.2852C240.344 29.6445 240.25 29.1484 240.062 28.7969C239.883 28.4453 239.625 28.2031 239.289 28.0703C238.953 27.9297 238.551 27.8594 238.082 27.8594C237.645 27.8594 237.258 27.9414 236.922 28.1055C236.594 28.2617 236.316 28.4844 236.09 28.7734C235.863 29.0547 235.691 29.3789 235.574 29.7461C235.465 30.1133 235.41 30.5117 235.41 30.9414ZM251.676 38.7344C250.738 38.7344 249.891 38.582 249.133 38.2773C248.383 37.9648 247.742 37.5312 247.211 36.9766C246.688 36.4219 246.285 35.7695 246.004 35.0195C245.723 34.2695 245.582 33.4609 245.582 32.5938V32.125C245.582 31.1328 245.727 30.2344 246.016 29.4297C246.305 28.625 246.707 27.9375 247.223 27.3672C247.738 26.7891 248.348 26.3477 249.051 26.043C249.754 25.7383 250.516 25.5859 251.336 25.5859C252.242 25.5859 253.035 25.7383 253.715 26.043C254.395 26.3477 254.957 26.7773 255.402 27.332C255.855 27.8789 256.191 28.5312 256.41 29.2891C256.637 30.0469 256.75 30.8828 256.75 31.7969V33.0039H246.953V30.9766H253.961V30.7539C253.945 30.2461 253.844 29.7695 253.656 29.3242C253.477 28.8789 253.199 28.5195 252.824 28.2461C252.449 27.9727 251.949 27.8359 251.324 27.8359C250.855 27.8359 250.438 27.9375 250.07 28.1406C249.711 28.3359 249.41 28.6211 249.168 28.9961C248.926 29.3711 248.738 29.8242 248.605 30.3555C248.48 30.8789 248.418 31.4688 248.418 32.125V32.5938C248.418 33.1484 248.492 33.6641 248.641 34.1406C248.797 34.6094 249.023 35.0195 249.32 35.3711C249.617 35.7227 249.977 36 250.398 36.2031C250.82 36.3984 251.301 36.4961 251.84 36.4961C252.52 36.4961 253.125 36.3594 253.656 36.0859C254.188 35.8125 254.648 35.4258 255.039 34.9258L256.527 36.3672C256.254 36.7656 255.898 37.1484 255.461 37.5156C255.023 37.875 254.488 38.168 253.855 38.3945C253.23 38.6211 252.504 38.7344 251.676 38.7344ZM261.754 28.5273V38.5H258.93V25.8203H261.59L261.754 28.5273ZM261.25 31.6914L260.336 31.6797C260.344 30.7812 260.469 29.957 260.711 29.207C260.961 28.457 261.305 27.8125 261.742 27.2734C262.188 26.7344 262.719 26.3203 263.336 26.0312C263.953 25.7344 264.641 25.5859 265.398 25.5859C266.008 25.5859 266.559 25.6719 267.051 25.8438C267.551 26.0078 267.977 26.2773 268.328 26.6523C268.688 27.0273 268.961 27.5156 269.148 28.1172C269.336 28.7109 269.43 29.4414 269.43 30.3086V38.5H266.594V30.2969C266.594 29.6875 266.504 29.207 266.324 28.8555C266.152 28.4961 265.898 28.2422 265.562 28.0938C265.234 27.9375 264.824 27.8594 264.332 27.8594C263.848 27.8594 263.414 27.9609 263.031 28.1641C262.648 28.3672 262.324 28.6445 262.059 28.9961C261.801 29.3477 261.602 29.7539 261.461 30.2148C261.32 30.6758 261.25 31.168 261.25 31.6914ZM278.125 25.8203V27.8828H270.977V25.8203H278.125ZM273.039 22.7148H275.863V34.9961C275.863 35.3867 275.918 35.6875 276.027 35.8984C276.145 36.1016 276.305 36.2383 276.508 36.3086C276.711 36.3789 276.949 36.4141 277.223 36.4141C277.418 36.4141 277.605 36.4023 277.785 36.3789C277.965 36.3555 278.109 36.332 278.219 36.3086L278.23 38.4648C277.996 38.5352 277.723 38.5977 277.41 38.6523C277.105 38.707 276.754 38.7344 276.355 38.7344C275.707 38.7344 275.133 38.6211 274.633 38.3945C274.133 38.1602 273.742 37.7812 273.461 37.2578C273.18 36.7344 273.039 36.0391 273.039 35.1719V22.7148Z" fill="#096DD9"/>
</svg>
