<svg width="405" height="60" viewBox="0 0 405 60" fill="none" xmlns="http://www.w3.org/2000/svg">
<rect width="60" height="60" rx="8" fill="#1890FF"/>
<path d="M30.8721 32.9248H23.8398V29.2324H30.8721C32.0967 29.2324 33.0863 29.0345 33.8408 28.6387C34.5954 28.2428 35.1458 27.6986 35.4922 27.0059C35.8509 26.3008 36.0303 25.4967 36.0303 24.5938C36.0303 23.7402 35.8509 22.9424 35.4922 22.2002C35.1458 21.4456 34.5954 20.8395 33.8408 20.3818C33.0863 19.9242 32.0967 19.6953 30.8721 19.6953H25.2686V43H20.6113V15.9844H30.8721C32.9626 15.9844 34.7376 16.3555 36.1973 17.0977C37.6693 17.8275 38.7887 18.8418 39.5557 20.1406C40.3226 21.4271 40.7061 22.8991 40.7061 24.5566C40.7061 26.3008 40.3226 27.7975 39.5557 29.0469C38.7887 30.2962 37.6693 31.2549 36.1973 31.9229C34.7376 32.5908 32.9626 32.9248 30.8721 32.9248Z" fill="white"/>
<path d="M77.6191 38.9736V29.3994C77.6191 28.682 77.4893 28.0635 77.2295 27.5439C76.9697 27.0244 76.5739 26.6224 76.042 26.3379C75.5225 26.0534 74.8669 25.9111 74.0752 25.9111C73.3454 25.9111 72.7145 26.0348 72.1826 26.2822C71.6507 26.5296 71.2363 26.8636 70.9395 27.2842C70.6426 27.7048 70.4941 28.181 70.4941 28.7129H66.041C66.041 27.9212 66.2327 27.1543 66.6162 26.4121C66.9997 25.6699 67.5563 25.0081 68.2861 24.4268C69.016 23.8454 69.888 23.3877 70.9023 23.0537C71.9167 22.7197 73.0547 22.5527 74.3164 22.5527C75.8255 22.5527 77.1615 22.8063 78.3242 23.3135C79.4993 23.8206 80.4209 24.5876 81.0889 25.6143C81.7692 26.6286 82.1094 27.9027 82.1094 29.4365V38.3613C82.1094 39.2767 82.1712 40.0993 82.2949 40.8291C82.431 41.5465 82.6227 42.1712 82.8701 42.7031V43H78.2871C78.0768 42.5176 77.9098 41.9053 77.7861 41.1631C77.6748 40.4085 77.6191 39.6787 77.6191 38.9736ZM78.2686 30.791L78.3057 33.5557H75.0957C74.2669 33.5557 73.5371 33.6361 72.9062 33.7969C72.2754 33.9453 71.7497 34.168 71.3291 34.4648C70.9085 34.7617 70.5931 35.1204 70.3828 35.541C70.1725 35.9616 70.0674 36.4378 70.0674 36.9697C70.0674 37.5016 70.1911 37.9902 70.4385 38.4355C70.6859 38.8685 71.0446 39.2087 71.5146 39.4561C71.9971 39.7035 72.5785 39.8271 73.2588 39.8271C74.1742 39.8271 74.972 39.6416 75.6523 39.2705C76.3451 38.887 76.8893 38.4232 77.2852 37.8789C77.681 37.3223 77.8913 36.7965 77.916 36.3018L79.3633 38.2871C79.2148 38.7943 78.9613 39.3385 78.6025 39.9199C78.2438 40.5013 77.7738 41.0579 77.1924 41.5898C76.6234 42.1094 75.9368 42.5361 75.1328 42.8701C74.3411 43.2041 73.4258 43.3711 72.3867 43.3711C71.0755 43.3711 69.9066 43.1113 68.8799 42.5918C67.8532 42.0599 67.0492 41.3486 66.4678 40.458C65.8864 39.555 65.5957 38.5345 65.5957 37.3965C65.5957 36.3327 65.7936 35.3926 66.1895 34.5762C66.5977 33.7474 67.1914 33.0547 67.9707 32.498C68.7624 31.9414 69.7272 31.5208 70.8652 31.2363C72.0033 30.9395 73.3021 30.791 74.7617 30.791H78.2686ZM91.2754 26.7461V43H86.8037V22.9238H91.0713L91.2754 26.7461ZM97.417 22.7939L97.3799 26.9502C97.1077 26.9007 96.8109 26.8636 96.4893 26.8389C96.18 26.8141 95.8708 26.8018 95.5615 26.8018C94.7946 26.8018 94.1204 26.9131 93.5391 27.1357C92.9577 27.346 92.4691 27.6553 92.0732 28.0635C91.6898 28.4593 91.3929 28.9417 91.1826 29.5107C90.9723 30.0798 90.8486 30.7168 90.8115 31.4219L89.791 31.4961C89.791 30.2344 89.9147 29.0654 90.1621 27.9893C90.4095 26.9131 90.7806 25.9668 91.2754 25.1504C91.7826 24.334 92.4134 23.6969 93.168 23.2393C93.9349 22.7816 94.8193 22.5527 95.8213 22.5527C96.0934 22.5527 96.3841 22.5775 96.6934 22.627C97.015 22.6764 97.2562 22.7321 97.417 22.7939ZM104.728 14.5V43H100.237V14.5H104.728ZM117.196 22.9238L108.457 32.6094L103.67 37.5078L102.501 33.7227L106.119 29.251L111.797 22.9238H117.196ZM112.762 43L106.249 33.5742L109.069 30.4385L117.938 43H112.762ZM124.822 22.9238V43H120.332V22.9238H124.822ZM120.035 17.6543C120.035 16.974 120.258 16.4111 120.703 15.9658C121.161 15.5081 121.792 15.2793 122.596 15.2793C123.387 15.2793 124.012 15.5081 124.47 15.9658C124.927 16.4111 125.156 16.974 125.156 17.6543C125.156 18.3223 124.927 18.8789 124.47 19.3242C124.012 19.7695 123.387 19.9922 122.596 19.9922C121.792 19.9922 121.161 19.7695 120.703 19.3242C120.258 18.8789 120.035 18.3223 120.035 17.6543ZM134.155 27.21V43H129.684V22.9238H133.896L134.155 27.21ZM133.357 32.2197L131.91 32.2012C131.923 30.7786 132.12 29.4736 132.504 28.2861C132.9 27.0986 133.444 26.0781 134.137 25.2246C134.842 24.3711 135.683 23.7155 136.66 23.2578C137.637 22.7878 138.726 22.5527 139.926 22.5527C140.891 22.5527 141.763 22.6888 142.542 22.9609C143.334 23.2207 144.008 23.6475 144.564 24.2412C145.133 24.835 145.566 25.6081 145.863 26.5605C146.16 27.5007 146.309 28.6572 146.309 30.0303V43H141.818V30.0117C141.818 29.0469 141.676 28.2861 141.392 27.7295C141.119 27.1605 140.717 26.7585 140.186 26.5234C139.666 26.276 139.017 26.1523 138.237 26.1523C137.47 26.1523 136.784 26.3132 136.178 26.6348C135.572 26.9564 135.058 27.3955 134.638 27.9521C134.229 28.5088 133.914 29.152 133.691 29.8818C133.469 30.6117 133.357 31.391 133.357 32.2197ZM163.731 22.9238H167.795V42.4434C167.795 44.2493 167.411 45.7832 166.645 47.0449C165.878 48.3066 164.808 49.2653 163.435 49.9209C162.062 50.5889 160.472 50.9229 158.666 50.9229C157.899 50.9229 157.046 50.8115 156.105 50.5889C155.178 50.3662 154.275 50.0075 153.396 49.5127C152.531 49.0303 151.807 48.3932 151.226 47.6016L153.322 44.9668C154.04 45.8203 154.831 46.445 155.697 46.8408C156.563 47.2367 157.472 47.4346 158.425 47.4346C159.451 47.4346 160.324 47.2428 161.041 46.8594C161.771 46.4883 162.334 45.9378 162.729 45.208C163.125 44.4782 163.323 43.5876 163.323 42.5361V27.4697L163.731 22.9238ZM150.094 33.1846V32.7949C150.094 31.2734 150.279 29.888 150.65 28.6387C151.021 27.377 151.553 26.2946 152.246 25.3916C152.939 24.4762 153.78 23.7773 154.77 23.2949C155.759 22.8001 156.879 22.5527 158.128 22.5527C159.427 22.5527 160.534 22.7878 161.449 23.2578C162.377 23.7279 163.15 24.402 163.769 25.2803C164.387 26.1462 164.869 27.1852 165.216 28.3975C165.575 29.5973 165.84 30.9333 166.014 32.4053V33.6484C165.853 35.0833 165.581 36.3945 165.197 37.582C164.814 38.7695 164.307 39.7962 163.676 40.6621C163.045 41.528 162.266 42.196 161.338 42.666C160.423 43.1361 159.34 43.3711 158.091 43.3711C156.866 43.3711 155.759 43.1175 154.77 42.6104C153.792 42.1032 152.951 41.3919 152.246 40.4766C151.553 39.5612 151.021 38.485 150.65 37.248C150.279 35.9987 150.094 34.6442 150.094 33.1846ZM154.565 32.7949V33.1846C154.565 34.0999 154.652 34.9535 154.825 35.7451C155.011 36.5368 155.289 37.2357 155.66 37.8418C156.044 38.4355 156.526 38.9056 157.107 39.252C157.701 39.5859 158.4 39.7529 159.204 39.7529C160.256 39.7529 161.115 39.5303 161.783 39.085C162.464 38.6396 162.983 38.0397 163.342 37.2852C163.713 36.5182 163.973 35.6647 164.121 34.7246V31.3662C164.047 30.6364 163.892 29.9561 163.657 29.3252C163.435 28.6943 163.132 28.1439 162.748 27.6738C162.365 27.1914 161.882 26.8203 161.301 26.5605C160.719 26.2884 160.033 26.1523 159.241 26.1523C158.437 26.1523 157.738 26.3255 157.145 26.6719C156.551 27.0182 156.062 27.4945 155.679 28.1006C155.308 28.7067 155.029 29.4118 154.844 30.2158C154.658 31.0199 154.565 31.8796 154.565 32.7949ZM184.234 15.9844H188.391L196.202 36.8213L203.995 15.9844H208.151L197.835 43H194.532L184.234 15.9844ZM182.342 15.9844H186.294L186.98 34.0195V43H182.342V15.9844ZM206.092 15.9844H210.062V43H205.405V34.0195L206.092 15.9844ZM226.465 38.9736V29.3994C226.465 28.682 226.335 28.0635 226.075 27.5439C225.815 27.0244 225.42 26.6224 224.888 26.3379C224.368 26.0534 223.713 25.9111 222.921 25.9111C222.191 25.9111 221.56 26.0348 221.028 26.2822C220.496 26.5296 220.082 26.8636 219.785 27.2842C219.488 27.7048 219.34 28.181 219.34 28.7129H214.887C214.887 27.9212 215.078 27.1543 215.462 26.4121C215.845 25.6699 216.402 25.0081 217.132 24.4268C217.862 23.8454 218.734 23.3877 219.748 23.0537C220.762 22.7197 221.9 22.5527 223.162 22.5527C224.671 22.5527 226.007 22.8063 227.17 23.3135C228.345 23.8206 229.267 24.5876 229.935 25.6143C230.615 26.6286 230.955 27.9027 230.955 29.4365V38.3613C230.955 39.2767 231.017 40.0993 231.141 40.8291C231.277 41.5465 231.468 42.1712 231.716 42.7031V43H227.133C226.923 42.5176 226.756 41.9053 226.632 41.1631C226.521 40.4085 226.465 39.6787 226.465 38.9736ZM227.114 30.791L227.151 33.5557H223.941C223.113 33.5557 222.383 33.6361 221.752 33.7969C221.121 33.9453 220.595 34.168 220.175 34.4648C219.754 34.7617 219.439 35.1204 219.229 35.541C219.018 35.9616 218.913 36.4378 218.913 36.9697C218.913 37.5016 219.037 37.9902 219.284 38.4355C219.532 38.8685 219.89 39.2087 220.36 39.4561C220.843 39.7035 221.424 39.8271 222.104 39.8271C223.02 39.8271 223.818 39.6416 224.498 39.2705C225.191 38.887 225.735 38.4232 226.131 37.8789C226.527 37.3223 226.737 36.7965 226.762 36.3018L228.209 38.2871C228.061 38.7943 227.807 39.3385 227.448 39.9199C227.09 40.5013 226.619 41.0579 226.038 41.5898C225.469 42.1094 224.783 42.5361 223.979 42.8701C223.187 43.2041 222.271 43.3711 221.232 43.3711C219.921 43.3711 218.752 43.1113 217.726 42.5918C216.699 42.0599 215.895 41.3486 215.313 40.458C214.732 39.555 214.441 38.5345 214.441 37.3965C214.441 36.3327 214.639 35.3926 215.035 34.5762C215.443 33.7474 216.037 33.0547 216.816 32.498C217.608 31.9414 218.573 31.5208 219.711 31.2363C220.849 30.9395 222.148 30.791 223.607 30.791H227.114ZM240.065 27.21V43H235.594V22.9238H239.806L240.065 27.21ZM239.268 32.2197L237.82 32.2012C237.833 30.7786 238.031 29.4736 238.414 28.2861C238.81 27.0986 239.354 26.0781 240.047 25.2246C240.752 24.3711 241.593 23.7155 242.57 23.2578C243.548 22.7878 244.636 22.5527 245.836 22.5527C246.801 22.5527 247.673 22.6888 248.452 22.9609C249.244 23.2207 249.918 23.6475 250.475 24.2412C251.044 24.835 251.477 25.6081 251.773 26.5605C252.07 27.5007 252.219 28.6572 252.219 30.0303V43H247.729V30.0117C247.729 29.0469 247.586 28.2861 247.302 27.7295C247.03 27.1605 246.628 26.7585 246.096 26.5234C245.576 26.276 244.927 26.1523 244.147 26.1523C243.381 26.1523 242.694 26.3132 242.088 26.6348C241.482 26.9564 240.968 27.3955 240.548 27.9521C240.14 28.5088 239.824 29.152 239.602 29.8818C239.379 30.6117 239.268 31.391 239.268 32.2197ZM268.102 38.9736V29.3994C268.102 28.682 267.972 28.0635 267.712 27.5439C267.452 27.0244 267.056 26.6224 266.524 26.3379C266.005 26.0534 265.349 25.9111 264.558 25.9111C263.828 25.9111 263.197 26.0348 262.665 26.2822C262.133 26.5296 261.719 26.8636 261.422 27.2842C261.125 27.7048 260.977 28.181 260.977 28.7129H256.523C256.523 27.9212 256.715 27.1543 257.099 26.4121C257.482 25.6699 258.039 25.0081 258.769 24.4268C259.498 23.8454 260.37 23.3877 261.385 23.0537C262.399 22.7197 263.537 22.5527 264.799 22.5527C266.308 22.5527 267.644 22.8063 268.807 23.3135C269.982 23.8206 270.903 24.5876 271.571 25.6143C272.252 26.6286 272.592 27.9027 272.592 29.4365V38.3613C272.592 39.2767 272.654 40.0993 272.777 40.8291C272.913 41.5465 273.105 42.1712 273.353 42.7031V43H268.77C268.559 42.5176 268.392 41.9053 268.269 41.1631C268.157 40.4085 268.102 39.6787 268.102 38.9736ZM268.751 30.791L268.788 33.5557H265.578C264.749 33.5557 264.02 33.6361 263.389 33.7969C262.758 33.9453 262.232 34.168 261.812 34.4648C261.391 34.7617 261.076 35.1204 260.865 35.541C260.655 35.9616 260.55 36.4378 260.55 36.9697C260.55 37.5016 260.674 37.9902 260.921 38.4355C261.168 38.8685 261.527 39.2087 261.997 39.4561C262.479 39.7035 263.061 39.8271 263.741 39.8271C264.657 39.8271 265.454 39.6416 266.135 39.2705C266.827 38.887 267.372 38.4232 267.768 37.8789C268.163 37.3223 268.374 36.7965 268.398 36.3018L269.846 38.2871C269.697 38.7943 269.444 39.3385 269.085 39.9199C268.726 40.5013 268.256 41.0579 267.675 41.5898C267.106 42.1094 266.419 42.5361 265.615 42.8701C264.824 43.2041 263.908 43.3711 262.869 43.3711C261.558 43.3711 260.389 43.1113 259.362 42.5918C258.336 42.0599 257.532 41.3486 256.95 40.458C256.369 39.555 256.078 38.5345 256.078 37.3965C256.078 36.3327 256.276 35.3926 256.672 34.5762C257.08 33.7474 257.674 33.0547 258.453 32.498C259.245 31.9414 260.21 31.5208 261.348 31.2363C262.486 30.9395 263.785 30.791 265.244 30.791H268.751ZM290.126 22.9238H294.189V42.4434C294.189 44.2493 293.806 45.7832 293.039 47.0449C292.272 48.3066 291.202 49.2653 289.829 49.9209C288.456 50.5889 286.867 50.9229 285.061 50.9229C284.294 50.9229 283.44 50.8115 282.5 50.5889C281.572 50.3662 280.669 50.0075 279.791 49.5127C278.925 49.0303 278.201 48.3932 277.62 47.6016L279.717 44.9668C280.434 45.8203 281.226 46.445 282.092 46.8408C282.958 47.2367 283.867 47.4346 284.819 47.4346C285.846 47.4346 286.718 47.2428 287.436 46.8594C288.165 46.4883 288.728 45.9378 289.124 45.208C289.52 44.4782 289.718 43.5876 289.718 42.5361V27.4697L290.126 22.9238ZM276.488 33.1846V32.7949C276.488 31.2734 276.674 29.888 277.045 28.6387C277.416 27.377 277.948 26.2946 278.641 25.3916C279.333 24.4762 280.174 23.7773 281.164 23.2949C282.154 22.8001 283.273 22.5527 284.522 22.5527C285.821 22.5527 286.928 22.7878 287.844 23.2578C288.771 23.7279 289.545 24.402 290.163 25.2803C290.782 26.1462 291.264 27.1852 291.61 28.3975C291.969 29.5973 292.235 30.9333 292.408 32.4053V33.6484C292.247 35.0833 291.975 36.3945 291.592 37.582C291.208 38.7695 290.701 39.7962 290.07 40.6621C289.439 41.528 288.66 42.196 287.732 42.666C286.817 43.1361 285.735 43.3711 284.485 43.3711C283.261 43.3711 282.154 43.1175 281.164 42.6104C280.187 42.1032 279.346 41.3919 278.641 40.4766C277.948 39.5612 277.416 38.485 277.045 37.248C276.674 35.9987 276.488 34.6442 276.488 33.1846ZM280.96 32.7949V33.1846C280.96 34.0999 281.047 34.9535 281.22 35.7451C281.405 36.5368 281.684 37.2357 282.055 37.8418C282.438 38.4355 282.921 38.9056 283.502 39.252C284.096 39.5859 284.795 39.7529 285.599 39.7529C286.65 39.7529 287.51 39.5303 288.178 39.085C288.858 38.6396 289.378 38.0397 289.736 37.2852C290.107 36.5182 290.367 35.6647 290.516 34.7246V31.3662C290.441 30.6364 290.287 29.9561 290.052 29.3252C289.829 28.6943 289.526 28.1439 289.143 27.6738C288.759 27.1914 288.277 26.8203 287.695 26.5605C287.114 26.2884 286.427 26.1523 285.636 26.1523C284.832 26.1523 284.133 26.3255 283.539 26.6719C282.945 27.0182 282.457 27.4945 282.073 28.1006C281.702 28.7067 281.424 29.4118 281.238 30.2158C281.053 31.0199 280.96 31.8796 280.96 32.7949ZM307.679 43.3711C306.194 43.3711 304.852 43.1299 303.652 42.6475C302.465 42.1527 301.451 41.4661 300.609 40.5879C299.781 39.7096 299.144 38.6768 298.698 37.4893C298.253 36.3018 298.03 35.0215 298.03 33.6484V32.9062C298.03 31.3353 298.259 29.9128 298.717 28.6387C299.174 27.3646 299.812 26.276 300.628 25.373C301.444 24.4577 302.409 23.7588 303.522 23.2764C304.636 22.7939 305.842 22.5527 307.141 22.5527C308.576 22.5527 309.831 22.7939 310.907 23.2764C311.983 23.7588 312.874 24.4391 313.579 25.3174C314.297 26.1833 314.828 27.2161 315.175 28.416C315.534 29.6159 315.713 30.9395 315.713 32.3867V34.2979H300.201V31.0879H311.297V30.7354C311.272 29.9313 311.111 29.1768 310.814 28.4717C310.53 27.7666 310.091 27.1976 309.497 26.7646C308.903 26.3317 308.112 26.1152 307.122 26.1152C306.38 26.1152 305.718 26.276 305.137 26.5977C304.568 26.9069 304.091 27.3584 303.708 27.9521C303.325 28.5459 303.028 29.2633 302.817 30.1045C302.619 30.9333 302.521 31.8672 302.521 32.9062V33.6484C302.521 34.5267 302.638 35.3431 302.873 36.0977C303.12 36.8398 303.479 37.4893 303.949 38.0459C304.419 38.6025 304.988 39.0417 305.656 39.3633C306.324 39.6725 307.085 39.8271 307.938 39.8271C309.015 39.8271 309.973 39.6107 310.814 39.1777C311.656 38.7448 312.385 38.1325 313.004 37.3408L315.36 39.623C314.927 40.2539 314.365 40.86 313.672 41.4414C312.979 42.0104 312.132 42.4743 311.13 42.833C310.14 43.1917 308.99 43.3711 307.679 43.3711ZM323.673 27.0059V43H319.201V22.9238H323.413L323.673 27.0059ZM322.949 32.2197L321.428 32.2012C321.428 30.8158 321.601 29.5355 321.947 28.3604C322.294 27.1852 322.801 26.1647 323.469 25.2988C324.137 24.4206 324.965 23.7464 325.955 23.2764C326.957 22.7939 328.114 22.5527 329.425 22.5527C330.34 22.5527 331.175 22.6888 331.93 22.9609C332.697 23.2207 333.358 23.6351 333.915 24.2041C334.484 24.7731 334.917 25.5029 335.214 26.3936C335.523 27.2842 335.678 28.3604 335.678 29.6221V43H331.206V30.0117C331.206 29.0345 331.058 28.2676 330.761 27.7109C330.476 27.1543 330.062 26.7585 329.518 26.5234C328.986 26.276 328.349 26.1523 327.606 26.1523C326.765 26.1523 326.048 26.3132 325.454 26.6348C324.873 26.9564 324.396 27.3955 324.025 27.9521C323.654 28.5088 323.382 29.152 323.209 29.8818C323.036 30.6117 322.949 31.391 322.949 32.2197ZM335.399 31.0322L333.303 31.4961C333.303 30.2839 333.47 29.1396 333.804 28.0635C334.15 26.9749 334.651 26.0225 335.307 25.2061C335.975 24.3773 336.797 23.7279 337.774 23.2578C338.752 22.7878 339.871 22.5527 341.133 22.5527C342.16 22.5527 343.075 22.695 343.879 22.9795C344.695 23.2516 345.388 23.6846 345.957 24.2783C346.526 24.8721 346.959 25.6452 347.256 26.5977C347.553 27.5378 347.701 28.6758 347.701 30.0117V43H343.211V29.9932C343.211 28.9788 343.062 28.1934 342.766 27.6367C342.481 27.0801 342.073 26.6966 341.541 26.4863C341.009 26.2637 340.372 26.1523 339.63 26.1523C338.937 26.1523 338.325 26.2822 337.793 26.542C337.273 26.7894 336.834 27.1419 336.476 27.5996C336.117 28.0449 335.845 28.5583 335.659 29.1396C335.486 29.721 335.399 30.3519 335.399 31.0322ZM361.153 43.3711C359.669 43.3711 358.327 43.1299 357.127 42.6475C355.939 42.1527 354.925 41.4661 354.084 40.5879C353.255 39.7096 352.618 38.6768 352.173 37.4893C351.728 36.3018 351.505 35.0215 351.505 33.6484V32.9062C351.505 31.3353 351.734 29.9128 352.191 28.6387C352.649 27.3646 353.286 26.276 354.103 25.373C354.919 24.4577 355.884 23.7588 356.997 23.2764C358.11 22.7939 359.316 22.5527 360.615 22.5527C362.05 22.5527 363.306 22.7939 364.382 23.2764C365.458 23.7588 366.349 24.4391 367.054 25.3174C367.771 26.1833 368.303 27.2161 368.649 28.416C369.008 29.6159 369.188 30.9395 369.188 32.3867V34.2979H353.676V31.0879H364.771V30.7354C364.747 29.9313 364.586 29.1768 364.289 28.4717C364.005 27.7666 363.565 27.1976 362.972 26.7646C362.378 26.3317 361.586 26.1152 360.597 26.1152C359.854 26.1152 359.193 26.276 358.611 26.5977C358.042 26.9069 357.566 27.3584 357.183 27.9521C356.799 28.5459 356.502 29.2633 356.292 30.1045C356.094 30.9333 355.995 31.8672 355.995 32.9062V33.6484C355.995 34.5267 356.113 35.3431 356.348 36.0977C356.595 36.8398 356.954 37.4893 357.424 38.0459C357.894 38.6025 358.463 39.0417 359.131 39.3633C359.799 39.6725 360.56 39.8271 361.413 39.8271C362.489 39.8271 363.448 39.6107 364.289 39.1777C365.13 38.7448 365.86 38.1325 366.479 37.3408L368.835 39.623C368.402 40.2539 367.839 40.86 367.146 41.4414C366.454 42.0104 365.606 42.4743 364.604 42.833C363.615 43.1917 362.465 43.3711 361.153 43.3711ZM377.11 27.21V43H372.639V22.9238H376.851L377.11 27.21ZM376.312 32.2197L374.865 32.2012C374.878 30.7786 375.076 29.4736 375.459 28.2861C375.855 27.0986 376.399 26.0781 377.092 25.2246C377.797 24.3711 378.638 23.7155 379.615 23.2578C380.592 22.7878 381.681 22.5527 382.881 22.5527C383.846 22.5527 384.718 22.6888 385.497 22.9609C386.289 23.2207 386.963 23.6475 387.52 24.2412C388.089 24.835 388.521 25.6081 388.818 26.5605C389.115 27.5007 389.264 28.6572 389.264 30.0303V43H384.773V30.0117C384.773 29.0469 384.631 28.2861 384.347 27.7295C384.075 27.1605 383.673 26.7585 383.141 26.5234C382.621 26.276 381.972 26.1523 381.192 26.1523C380.425 26.1523 379.739 26.3132 379.133 26.6348C378.527 26.9564 378.013 27.3955 377.593 27.9521C377.185 28.5088 376.869 29.152 376.646 29.8818C376.424 30.6117 376.312 31.391 376.312 32.2197ZM403.031 22.9238V26.1895H391.713V22.9238H403.031ZM394.979 18.0068H399.45V37.4521C399.45 38.0706 399.537 38.5469 399.71 38.8809C399.896 39.2025 400.149 39.4189 400.471 39.5303C400.792 39.6416 401.17 39.6973 401.603 39.6973C401.912 39.6973 402.209 39.6787 402.493 39.6416C402.778 39.6045 403.007 39.5674 403.18 39.5303L403.198 42.9443C402.827 43.0557 402.394 43.1546 401.899 43.2412C401.417 43.3278 400.86 43.3711 400.229 43.3711C399.203 43.3711 398.294 43.1917 397.502 42.833C396.71 42.4619 396.092 41.862 395.646 41.0332C395.201 40.2044 394.979 39.1035 394.979 37.7305V18.0068Z" fill="#096DD9"/>
</svg>
