<svg width="60" height="61" viewBox="0 0 60 61" fill="none" xmlns="http://www.w3.org/2000/svg">
<rect y="0.5" width="60" height="60" rx="8" fill="#1890FF"/>
<path d="M30.8721 33.4248H23.8398V29.7324H30.8721C32.0967 29.7324 33.0863 29.5345 33.8408 29.1387C34.5954 28.7428 35.1458 28.1986 35.4922 27.5059C35.8509 26.8008 36.0303 25.9967 36.0303 25.0938C36.0303 24.2402 35.8509 23.4424 35.4922 22.7002C35.1458 21.9456 34.5954 21.3395 33.8408 20.8818C33.0863 20.4242 32.0967 20.1953 30.8721 20.1953H25.2686V43.5H20.6113V16.4844H30.8721C32.9626 16.4844 34.7376 16.8555 36.1973 17.5977C37.6693 18.3275 38.7887 19.3418 39.5557 20.6406C40.3226 21.9271 40.7061 23.3991 40.7061 25.0566C40.7061 26.8008 40.3226 28.2975 39.5557 29.5469C38.7887 30.7962 37.6693 31.7549 36.1973 32.4229C34.7376 33.0908 32.9626 33.4248 30.8721 33.4248Z" fill="white"/>
</svg>
